:SAMPLES-PER-SECOND 30
:FULLY-SPECIFIED
:DEGREES
977
root  -18.3941 39.3451 23.923 179.609 -1.72926 178.809
RightUpLeg  -12.9798 -9.698 -4.63523
RightLeg  21.6356 6.60073 2.67816
RightFoot  -7.62438 -0.149462 2.93036
RightToes  -6.98493e-010 0 -3.6325e-017
Spine  15.8563 -0.00505965 0.972912
Spine1  12.1083 -0.171629 0.885916
HEad  -25.0052 -6.26257 4.42732
LeftShoulder1  0.579099 1.45622 -21.9002
LeftArm  -21.9823 -3.05642 -34.7727
LeftForeArm  52.2141 -78.5293 -77.8
LeftHand  -0.131902 0.508076 3.10881
RightShoulder  0.0639083 -3.22952 19.0591
RightArm  -14.3341 25.4417 39.4503
RightForeArm  53.2509 78.5308 83.2055
RightHand  -0.063241 -0.750217 -1.50132
LeftUpLeg  -13.4533 1.25014 -3.25366
LeftLeg  21.2158 -2.07174 -0.566648
LeftFoot  -6.53477 -0.22418 6.25127
LeftToes  7.91257e-010 -1.64976e-010 -3.02228e-011
978
root  -17.9818 39.1761 23.9208 179.326 -1.44169 178.499
RightUpLeg  -14.2104 -12.793 -4.70352
RightLeg  25.1148 9.94984 4.84486
RightFoot  -9.61228 -0.129232 4.6631
RightToes  -6.98493e-010 0 -3.6325e-017
Spine  15.9778 0.247454 -1.93893
Spine1  11.1934 -0.589643 2.017
HEad  -24.9253 -4.97063 4.71957
LeftShoulder1  0.555458 1.50004 -21.3053
LeftArm  -22.2757 -4.0859 -33.8384
LeftForeArm  53.2704 -78.5705 -79.4103
LeftHand  -0.128314 0.870553 3.21702
RightShoulder  0.127484 -2.97826 18.8412
RightArm  -14.6045 25.497 40.4248
RightForeArm  50.1768 78.4351 80.295
RightHand  -0.0743743 -1.13536 -1.87079
LeftUpLeg  -13.9409 3.59729 -2.66935
LeftLeg  22.8651 -4.3118 -1.6489
LeftFoot  -7.25374 -0.135275 5.03918
LeftToes  7.91257e-010 -1.64976e-010 -3.02228e-011
979
root  -17.6125 39.0848 23.8538 178.992 -0.395158 178.167
RightUpLeg  -14.9409 -15.0618 -5.43622
RightLeg  28.189 14.5621 8.11354
RightFoot  -11.9976 -0.000950751 11.375
RightToes  -6.98493e-010 0 -3.6325e-017
Spine  15.2198 0.624488 -3.44816
Spine1  11.35 -0.109573 1.02333
HEad  -24.9696 -5.21367 5.56057
LeftShoulder1  0.589636 1.37046 -21.2186
LeftArm  -22.622 -5.77109 -33.5964
LeftForeArm  53.1124 -78.5648 -79.0757
LeftHand  -0.124165 0.799917 3.05044
RightShoulder  0.109087 -3.0501 18.8331
RightArm  -15.1301 25.3746 41.0288
RightForeArm  47.3481 78.3227 76.8953
RightHand  -0.0514791 -1.25179 -1.27127
LeftUpLeg  -13.8404 4.90582 -2.29644
LeftLeg  23.7382 -4.44882 -1.78965
LeftFoot  -7.69028 -0.1082 4.82862
LeftToes  7.91257e-010 -1.64976e-010 -3.02228e-011
980
root  -17.2845 38.9984 23.7681 178.156 0.890152 177.993
RightUpLeg  -14.9939 -15.8812 -6.61478
RightLeg  31.384 19.3504 12.1276
RightFoot  -13.9015 0.318401 19.0463
RightToes  -6.98493e-010 0 -3.6325e-017
Spine  15.2515 0.958516 -4.08219
Spine1  10.9508 0.533458 -0.463391
HEad  -24.2343 -5.21718 6.10766
LeftShoulder1  0.603056 1.31881 -21.1907
LeftArm  -22.7843 -6.96341 -33.4844
LeftForeArm  52.3476 -78.535 -78.2973
LeftHand  -0.0948231 1.29458 2.52686
RightShoulder  0.0959543 -3.10415 18.9962
RightArm  -15.1589 24.7085 41.3872
RightForeArm  44.4227 78.1662 74.0143
RightHand  -0.0492507 -0.953993 -1.1676
LeftUpLeg  -13.096 5.16349 -1.70953
LeftLeg  24.6112 -3.70163 -1.49783
LeftFoot  -8.53819 -0.0462471 3.98523
LeftToes  7.91257e-010 -1.64976e-010 -3.02228e-011
981
root  -16.9138 39.019 23.674 177.822 2.1941 178.104
RightUpLeg  -15.5696 -16.3182 -7.65509
RightLeg  34.3757 21.5836 14.935
RightFoot  -13.4853 0.310867 21.3101
RightToes  -6.98493e-010 0 -3.6325e-017
Spine  15.0436 1.23077 -4.89673
Spine1  10.0486 0.797276 -0.892967
HEad  -22.877 -5.11028 6.00344
LeftShoulder1  0.51451 1.65646 -21.4373
LeftArm  -22.6115 -7.24526 -33.2552
LeftForeArm  52.4279 -78.5377 -78.7107
LeftHand  -0.115116 0.917869 2.89858
RightShoulder  0.134139 -2.9569 19.1225
RightArm  -14.6317 24.3427 42.0039
RightForeArm  39.4789 77.8164 68.673
RightHand  -0.0358338 -0.672527 -0.796114
LeftUpLeg  -12.2982 5.80309 -0.753294
LeftLeg  24.3801 -3.39702 -1.3277
LeftFoot  -8.89274 -0.0104111 3.01376
LeftToes  7.91257e-010 -1.64976e-010 -3.02228e-011
982
root  -16.5499 39.1535 23.5479 177.476 2.95843 178.563
RightUpLeg  -15.5084 -16.152 -9.0465
RightLeg  35.5248 17.9087 13.0645
RightFoot  -13.223 0.235417 19.5559
RightToes  -6.98493e-010 0 -3.6325e-017
Spine  14.3969 1.14689 -4.54918
Spine1  10.0209 0.930348 -1.69449
HEad  -21.8689 -4.82081 5.89632
LeftShoulder1  0.519553 1.6152 -21.0824
LeftArm  -22.7861 -6.8674 -33.5271
LeftForeArm  53.9646 -78.5949 -80.1099
LeftHand  -0.108213 0.988912 2.74698
RightShoulder  0.121112 -3.01081 19.3137
RightArm  -14.0636 24.2535 42.2524
RightForeArm  36.313 77.5313 65.4701
RightHand  -0.0298463 -0.778248 -0.658902
LeftUpLeg  -10.9741 5.82404 0.500136
LeftLeg  23.1793 -3.0291 -1.06312
LeftFoot  -8.62418 -0.000241425 2.19515
LeftToes  7.91257e-010 -1.64976e-010 -3.02228e-011
